
<global>
ampeg_attack=0.001
ampeg_release=1.5
</global>

<group>
group_label=RR2
seq_length=4
seq_position=1

<region>
hivel=103
key=D3
lovel=78
offset=6165
sample=Bass_a5_Brushes_Hits_F_D4_RR2.opus
</region>

<region>
hivel=127
key=D3
lovel=104
offset=800
sample=Bass_a5_Brushes_Hits_FF_D4_RR2.opus
</region>

<region>
hivel=77
key=D3
lovel=52
offset=5505
sample=Bass_a5_Brushes_Hits_MF_D4_RR2.opus
</region>

<region>
hivel=51
key=D3
lovel=26
offset=4510
sample=Bass_a5_Brushes_Hits_MP_D4_RR2.opus
</region>

<region>
hivel=25
key=D3
lovel=0
offset=6551
sample=Bass_a5_Brushes_Hits_P_D4_RR2.opus
</region>
</group>

<group>
group_label=RR4
seq_length=4
seq_position=2

<region>
hivel=103
key=D3
lovel=78
offset=5843
sample=Bass_a5_Brushes_Hits_F_D4_RR4.opus
</region>

<region>
hivel=127
key=D3
lovel=104
offset=4158
sample=Bass_a5_Brushes_Hits_FF_D4_RR4.opus
</region>

<region>
hivel=77
key=D3
lovel=52
offset=4321
sample=Bass_a5_Brushes_Hits_MF_D4_RR4.opus
</region>

<region>
hivel=51
key=D3
lovel=26
offset=6556
sample=Bass_a5_Brushes_Hits_MP_D4_RR4.opus
</region>

<region>
hivel=25
key=D3
lovel=0
offset=5632
sample=Bass_a5_Brushes_Hits_P_D4_RR4.opus
</region>
</group>

<group>
group_label=RR6
seq_length=4
seq_position=3

<region>
hivel=103
key=D3
lovel=78
offset=6453
sample=Bass_a5_Brushes_Hits_F_D4_RR6.opus
</region>

<region>
hivel=127
key=D3
lovel=104
offset=5539
sample=Bass_a5_Brushes_Hits_FF_D4_RR6.opus
</region>

<region>
hivel=77
key=D3
lovel=52
offset=4865
sample=Bass_a5_Brushes_Hits_MF_D4_RR6.opus
</region>

<region>
hivel=51
key=D3
lovel=26
offset=6861
sample=Bass_a5_Brushes_Hits_MP_D4_RR6.opus
</region>

<region>
hivel=25
key=D3
lovel=0
offset=6040
sample=Bass_a5_Brushes_Hits_P_D4_RR6.opus
</region>
</group>

<group>
group_label=RR8
seq_length=4
seq_position=4

<region>
hivel=103
key=D3
lovel=78
offset=1014
sample=Bass_a5_Brushes_Hits_F_D4_RR8.opus
</region>

<region>
hivel=127
key=D3
lovel=104
offset=5847
sample=Bass_a5_Brushes_Hits_FF_D4_RR8.opus
</region>

<region>
hivel=77
key=D3
lovel=52
offset=5993
sample=Bass_a5_Brushes_Hits_MF_D4_RR8.opus
</region>

<region>
hivel=51
key=D3
lovel=26
offset=4832
sample=Bass_a5_Brushes_Hits_MP_D4_RR8.opus
</region>

<region>
hivel=25
key=D3
lovel=0
offset=6053
sample=Bass_a5_Brushes_Hits_P_D4_RR8.opus
</region>
</group>

<group>
group_label=Rim_RR2
seq_length=2
seq_position=1

<region>
hivel=103
key=E3
lovel=78
offset=5468
sample=Bass_a5_Brushes_Rim_Hit_F_D4_RR2.opus
</region>

<region>
hivel=127
key=E3
lovel=104
offset=4648
sample=Bass_a5_Brushes_Rim_Hit_FF_D4_RR2.opus
</region>

<region>
hivel=77
key=E3
lovel=52
offset=4712
sample=Bass_a5_Brushes_Rim_Hit_MF_D4_RR2.opus
</region>

<region>
hivel=51
key=E3
lovel=26
offset=7111
sample=Bass_a5_Brushes_Rim_Hit_MP_D4_RR2.opus
</region>

<region>
hivel=25
key=E3
lovel=0
offset=5708
sample=Bass_a5_Brushes_Rim_Hit_P_D4_RR2.opus
</region>
</group>

<group>
group_label=Rim_RR4
seq_length=2
seq_position=2

<region>
hivel=103
key=E3
lovel=78
offset=6034
sample=Bass_a5_Brushes_Rim_Hit_F_D4_RR4.opus
</region>

<region>
hivel=127
key=E3
lovel=104
offset=4266
sample=Bass_a5_Brushes_Rim_Hit_FF_D4_RR4.opus
</region>

<region>
hivel=77
key=E3
lovel=52
offset=3813
sample=Bass_a5_Brushes_Rim_Hit_MF_D4_RR4.opus
</region>

<region>
hivel=51
key=E3
lovel=26
offset=5033
sample=Bass_a5_Brushes_Rim_Hit_MP_D4_RR4.opus
</region>

<region>
hivel=25
key=E3
lovel=0
offset=5915
sample=Bass_a5_Brushes_Rim_Hit_P_D4_RR4.opus
</region>
</group>